<svg width="120" height="40" viewBox="0 0 120 40" fill="none" xmlns="http://www.w3.org/2000/svg">
<g clip-path="url(#clip0_103_435)">
<path d="M110.13 0H9.53C9.17 0 8.81 0 8.44 0C8.13 0 7.83 0 7.52 0.01C6.85 0.01 6.18 0.08 5.52 0.19C4.86 0.3 4.22 0.51 3.62 0.82C3.02 1.13 2.48 1.52 2 2C1.52 2.47 1.12 3.02 0.82 3.62C0.52 4.22 0.31 4.86 0.2 5.52C0.08 6.18 0.02 6.85 0.02 7.52C0.02 7.83 0.01 8.13 0 8.44V31.55C0 31.86 0 32.16 0.02 32.47C0.02 33.14 0.09 33.81 0.2 34.47C0.31 35.13 0.52 35.78 0.83 36.37C1.13 36.97 1.53 37.51 2.01 37.98C2.48 38.46 3.03 38.85 3.63 39.16C4.23 39.46 4.87 39.68 5.53 39.79C6.19 39.9 6.86 39.96 7.53 39.97C7.84 39.97 8.14 39.98 8.45 39.98C8.82 39.98 9.18 39.98 9.54 39.98H110.14C110.5 39.98 110.86 39.98 111.22 39.98C111.52 39.98 111.84 39.98 112.14 39.97C112.81 39.97 113.48 39.9 114.14 39.79C114.8 39.68 115.45 39.46 116.05 39.16C116.65 38.86 117.19 38.46 117.67 37.98C118.15 37.51 118.54 36.96 118.85 36.37C119.15 35.77 119.36 35.13 119.47 34.47C119.58 33.81 119.64 33.14 119.66 32.47C119.66 32.16 119.66 31.86 119.66 31.55C119.66 31.19 119.66 30.83 119.66 30.46V9.54C119.66 9.17 119.66 8.81 119.66 8.45C119.66 8.14 119.66 7.84 119.66 7.53C119.65 6.86 119.59 6.19 119.47 5.53C119.36 4.87 119.15 4.23 118.85 3.63C118.23 2.43 117.25 1.45 116.05 0.83C115.45 0.53 114.81 0.32 114.14 0.2C113.48 0.09 112.81 0.03 112.14 0.02C111.84 0.02 111.52 0.01 111.22 0.01C110.86 0.01 110.5 0.01 110.14 0.01L110.13 0Z" fill="#A6A6A6"/>
<path d="M8.44012 39.1297C8.14012 39.1297 7.84012 39.1296 7.54012 39.1196C6.91012 39.1196 6.29012 39.0596 5.67012 38.9596C5.09012 38.8596 4.54012 38.6796 4.01012 38.4096C3.49012 38.1497 3.02012 37.7996 2.61012 37.3896C2.20012 36.9796 1.85012 36.5097 1.59012 35.9897C1.33012 35.4697 1.14012 34.9097 1.05012 34.3297C0.950117 33.7097 0.890117 33.0797 0.880117 32.4496C0.880117 32.2397 0.870117 31.5396 0.870117 31.5396V8.43965C0.870117 8.43965 0.870117 7.74965 0.880117 7.54965C0.880117 6.91965 0.940117 6.29965 1.05012 5.67965C1.15012 5.09965 1.33012 4.53965 1.59012 4.01965C1.85012 3.49965 2.19012 3.02965 2.61012 2.61965C3.02012 2.20965 3.49012 1.85965 4.01012 1.59965C4.53012 1.33965 5.09012 1.14965 5.66012 1.05965C6.28012 0.959648 6.91012 0.899648 7.54012 0.899648H8.44012L111.21 0.889648H112.12C112.74 0.909648 113.36 0.959649 113.98 1.06965C114.56 1.16965 115.12 1.34965 115.65 1.61965C116.69 2.14965 117.53 2.99965 118.07 4.03965C118.33 4.55965 118.51 5.11965 118.61 5.68965C118.71 6.30965 118.77 6.93965 118.78 7.57965C118.78 7.85965 118.78 8.16965 118.78 8.46965C118.78 8.84965 118.78 9.19965 118.78 9.55965V30.4896C118.78 30.8496 118.78 31.2096 118.78 31.5696C118.78 31.8996 118.78 32.1896 118.78 32.4996C118.77 33.1196 118.71 33.7396 118.61 34.3496C118.52 34.9296 118.33 35.4897 118.07 36.0196C117.81 36.5296 117.46 36.9996 117.05 37.4096C116.64 37.8196 116.17 38.1697 115.65 38.4296C115.12 38.6996 114.56 38.8797 113.98 38.9796C113.36 39.0796 112.74 39.1396 112.11 39.1396C111.82 39.1396 111.51 39.1497 111.21 39.1497H110.13H8.44012V39.1297Z" fill="black"/>
<path d="M24.7702 20.2994C24.7902 18.5994 25.6802 17.0394 27.1302 16.1494C26.2102 14.8394 24.7302 14.0394 23.1402 13.9894C21.4602 13.8094 19.8302 14.9894 18.9802 14.9894C18.1302 14.9894 16.7902 13.9994 15.3702 14.0294C13.5002 14.0894 11.8102 15.1294 10.9002 16.7594C8.97023 20.1094 10.4102 25.0294 12.2602 27.7394C13.1902 29.0694 14.2702 30.5494 15.6902 30.4894C17.0802 30.4294 17.6002 29.6094 19.2702 29.6094C20.9402 29.6094 21.4102 30.4894 22.8602 30.4594C24.3502 30.4394 25.2902 29.1294 26.1802 27.7894C26.8502 26.8494 27.3602 25.7994 27.7002 24.6994C25.9302 23.9494 24.7802 22.2194 24.7802 20.2994H24.7702Z" fill="white"/>
<path d="M22.0404 12.2097C22.8504 11.2397 23.2504 9.97973 23.1504 8.71973C21.9104 8.84973 20.7604 9.43973 19.9404 10.3797C19.1304 11.2997 18.7204 12.5097 18.8004 13.7397C20.0604 13.7497 21.2504 13.1897 22.0404 12.2097Z" fill="white"/>
<path d="M42.3002 27.1401H37.5702L36.4302 30.5001H34.4302L38.9102 18.0801H40.9902L45.4702 30.5001H43.4302L42.2902 27.1401H42.3002ZM38.0602 25.5901H41.8102L39.9602 20.1401H39.9102L38.0602 25.5901Z" fill="white"/>
<path d="M55.1604 25.9705C55.1604 28.7805 53.6504 30.5905 51.3804 30.5905C50.2104 30.6505 49.1004 30.0405 48.5304 29.0105H48.4904V33.4905H46.6304V21.4405H48.4304V22.9505H48.4604C49.0504 21.9305 50.1604 21.3105 51.3404 21.3505C53.6404 21.3505 55.1504 23.1705 55.1504 25.9705H55.1604ZM53.2504 25.9705C53.2504 24.1405 52.3004 22.9305 50.8604 22.9305C49.4204 22.9305 48.4804 24.1605 48.4804 25.9705C48.4804 27.7805 49.4404 29.0205 50.8604 29.0205C52.2804 29.0205 53.2504 27.8205 53.2504 25.9705Z" fill="white"/>
<path d="M65.1203 25.9705C65.1203 28.7805 63.6103 30.5905 61.3403 30.5905C60.1703 30.6505 59.0603 30.0405 58.4903 29.0105H58.4503V33.4905H56.5903V21.4405H58.3903V22.9505H58.4203C59.0103 21.9305 60.1203 21.3105 61.3003 21.3505C63.6003 21.3505 65.1103 23.1705 65.1103 25.9705H65.1203ZM63.2103 25.9705C63.2103 24.1405 62.2603 22.9305 60.8203 22.9305C59.3803 22.9305 58.4403 24.1605 58.4403 25.9705C58.4403 27.7805 59.4003 29.0205 60.8203 29.0205C62.2403 29.0205 63.2103 27.8205 63.2103 25.9705Z" fill="white"/>
<path d="M71.7101 27.0401C71.8501 28.2701 73.0401 29.0801 74.6801 29.0801C76.3201 29.0801 77.3701 28.2701 77.3701 27.1601C77.3701 26.2001 76.6901 25.6201 75.0801 25.2201L73.4701 24.8301C71.1901 24.2801 70.1301 23.2101 70.1301 21.4801C70.1301 19.3401 72.0001 17.8701 74.6501 17.8701C77.3001 17.8701 79.0701 19.3401 79.1301 21.4801H77.2501C77.1401 20.2401 76.1101 19.4901 74.6201 19.4901C73.1301 19.4901 72.1001 20.2501 72.1001 21.3501C72.1001 22.2301 72.7501 22.7401 74.3501 23.1401L75.7201 23.4801C78.2701 24.0801 79.3301 25.1101 79.3301 26.9201C79.3301 29.2401 77.4801 30.7001 74.5401 30.7001C71.7901 30.7001 69.9301 29.2801 69.8101 27.0301H71.7101V27.0401Z" fill="white"/>
<path d="M83.3502 19.2998V21.4398H85.0702V22.9098H83.3502V27.8998C83.3502 28.6798 83.6901 29.0398 84.4501 29.0398C84.6501 29.0398 84.8602 29.0198 85.0602 28.9998V30.4598C84.7201 30.5198 84.3702 30.5498 84.0302 30.5498C82.2002 30.5498 81.4802 29.8598 81.4802 28.1098V22.9198H80.1602V21.4498H81.4802V19.3098H83.3502V19.2998Z" fill="white"/>
<path d="M86.0703 25.9701C86.0703 23.1201 87.7503 21.3301 90.3603 21.3301C92.9703 21.3301 94.6503 23.1201 94.6503 25.9701C94.6503 28.8201 92.9903 30.6101 90.3603 30.6101C87.7303 30.6101 86.0703 28.8301 86.0703 25.9701ZM92.7703 25.9701C92.7703 24.0201 91.8703 22.8601 90.3703 22.8601C88.8703 22.8601 87.9703 24.0201 87.9703 25.9701C87.9703 27.9201 88.8603 29.0801 90.3703 29.0801C91.8803 29.0801 92.7703 27.9401 92.7703 25.9701Z" fill="white"/>
<path d="M96.1899 21.4398H97.9599V22.9798H97.9999C98.2499 21.9898 99.1599 21.3098 100.18 21.3398C100.39 21.3398 100.61 21.3598 100.82 21.4098V23.1498C100.55 23.0698 100.27 23.0298 99.9899 23.0398C98.9599 22.9998 98.0799 23.7998 98.0399 24.8398C98.0399 24.9398 98.0399 25.0298 98.0499 25.1298V30.4998H96.1899V21.4498V21.4398Z" fill="white"/>
<path d="M109.38 27.8401C109.13 29.4801 107.53 30.6101 105.48 30.6101C102.85 30.6101 101.21 28.8501 101.21 26.0101C101.21 23.1701 102.85 21.3301 105.4 21.3301C107.95 21.3301 109.48 23.0501 109.48 25.8001V26.4401H103.09V26.5501C102.98 27.8501 103.93 28.9901 105.23 29.1101C105.33 29.1101 105.43 29.1201 105.52 29.1101C106.42 29.1901 107.27 28.6801 107.61 27.8401H109.37H109.38ZM103.1 25.1401H107.63C107.7 23.9401 106.78 22.9101 105.58 22.8501C105.52 22.8501 105.47 22.8501 105.41 22.8501C104.14 22.8501 103.11 23.8601 103.1 25.1301C103.1 25.1301 103.1 25.1401 103.1 25.1501V25.1401Z" fill="white"/>
<path d="M37.1798 14.7002V9.58023H35.2998V8.74023H39.9798V9.58023H38.1098V14.7002H37.1798Z" fill="white"/>
<path d="M40.27 13.4202C40.27 12.6102 40.87 12.1402 41.94 12.0802L43.16 12.0102V11.6202C43.16 11.1402 42.85 10.8802 42.24 10.8802C41.74 10.8802 41.4 11.0602 41.3 11.3802H40.44C40.53 10.6102 41.26 10.1102 42.28 10.1102C43.41 10.1102 44.05 10.6702 44.05 11.6202V14.7002H43.19V14.0702H43.12C42.83 14.5302 42.31 14.8002 41.77 14.7802C41.02 14.8602 40.35 14.3102 40.28 13.5702C40.28 13.5302 40.28 13.4802 40.28 13.4302L40.27 13.4202ZM43.16 13.0402V12.6602L42.06 12.7302C41.44 12.7702 41.16 12.9802 41.16 13.3802C41.16 13.7802 41.51 14.0202 41.99 14.0202C42.57 14.0802 43.09 13.6502 43.15 13.0702C43.15 13.0602 43.15 13.0502 43.15 13.0302L43.16 13.0402ZM41.64 8.02024C41.83 7.96024 42.03 7.92024 42.23 7.93024C42.82 7.93024 43.21 8.24024 43.21 8.74024C43.18 9.19024 42.86 9.58024 42.42 9.70024L42.08 9.26024C42.35 9.17024 42.54 9.00024 42.54 8.82024C42.54 8.64024 42.36 8.51024 42.11 8.51024C41.95 8.51024 41.79 8.54024 41.65 8.60024V8.03024L41.64 8.02024Z" fill="white"/>
<path d="M45.3298 8.86019C45.3098 8.54019 45.5498 8.27019 45.8698 8.25019C46.1898 8.23019 46.4598 8.47019 46.4798 8.79019C46.4998 9.11019 46.2598 9.38019 45.9398 9.40019C45.9298 9.40019 45.9198 9.40019 45.9098 9.40019C45.6098 9.42019 45.3498 9.18019 45.3398 8.88019V8.86019H45.3298ZM45.4598 10.1902H46.3498V14.6902H45.4598V10.1902Z" fill="white"/>
<path d="M52.4096 14.7002H51.4496L49.8296 10.2002H50.7796L51.8996 13.7502H51.9696L53.0896 10.2002H54.0296L52.4096 14.7002Z" fill="white"/>
<path d="M58.6896 13.4798C58.4396 14.3298 57.6197 14.8798 56.7397 14.7798C55.6097 14.8098 54.6696 13.9198 54.6396 12.7898C54.6396 12.6798 54.6396 12.5698 54.6596 12.4598C54.5096 11.3198 55.3096 10.2798 56.4396 10.1298C56.5396 10.1198 56.6396 10.1098 56.7296 10.1098C57.9796 10.1098 58.7397 10.9698 58.7397 12.3798V12.6898H55.5597V12.7398C55.4997 13.3998 55.9897 13.9698 56.6497 14.0298C56.6897 14.0298 56.7296 14.0298 56.7596 14.0298C57.1896 14.0798 57.6197 13.8698 57.8297 13.4798H58.6896ZM58.3797 9.5798H57.4496L56.7696 8.7398H56.6996L56.0196 9.5798H55.0896L56.2496 8.2098H57.2197L58.3797 9.5798ZM55.5696 12.0298H57.8396C57.8796 11.4298 57.4396 10.9098 56.8396 10.8698C56.7996 10.8698 56.7696 10.8698 56.7296 10.8698C56.0896 10.8698 55.5697 11.3698 55.5597 12.0098C55.5597 12.0098 55.5597 12.0298 55.5597 12.0398L55.5696 12.0298ZM57.8396 8.0998L56.9196 6.7998H57.8496L58.6396 8.0998H57.8496H57.8396Z" fill="white"/>
<path d="M63.59 9.06934V10.2093H64.57V10.9593H63.59V13.2793C63.59 13.7493 63.78 13.9593 64.23 13.9593C64.34 13.9593 64.46 13.9593 64.57 13.9393V14.6793C64.41 14.7093 64.25 14.7193 64.09 14.7293C63.1 14.7293 62.71 14.3793 62.71 13.5093V10.9693H62V10.2193H62.71V9.07934H63.6L63.59 9.06934Z" fill="white"/>
<path d="M65.73 10.1894H66.59V10.8794H66.66C66.86 10.3894 67.35 10.0794 67.88 10.1094C68.01 10.1094 68.15 10.1194 68.28 10.1494V11.0294C68.12 10.9994 67.95 10.9794 67.78 10.9794C67.2 10.9294 66.69 11.3594 66.63 11.9394C66.63 11.9694 66.63 12.0094 66.63 12.0394V14.6994H65.74V10.1994L65.73 10.1894Z" fill="white"/>
<path d="M72.9397 13.4794C72.6897 14.3294 71.8696 14.8794 70.9896 14.7794C69.8596 14.8094 68.9196 13.9194 68.8896 12.7894C68.8896 12.6794 68.8897 12.5694 68.9097 12.4594C68.7597 11.3194 69.5597 10.2794 70.6897 10.1294C70.7897 10.1194 70.8897 10.1094 70.9797 10.1094C72.2297 10.1094 72.9896 10.9694 72.9896 12.3794V12.6894H69.8096V12.7394C69.7496 13.3994 70.2397 13.9694 70.8997 14.0294C70.9397 14.0294 70.9797 14.0294 71.0097 14.0294C71.4397 14.0794 71.8697 13.8694 72.0797 13.4794H72.9397ZM72.6197 9.57941H71.7096L71.0196 8.66941H70.9496L70.2597 9.57941H69.3396L70.4996 8.14941H71.4697L72.6197 9.57941ZM69.8096 12.0294H72.0797C72.1197 11.4294 71.6797 10.9094 71.0797 10.8694C71.0397 10.8694 71.0097 10.8694 70.9697 10.8694C70.3297 10.8694 69.8097 11.3694 69.7997 12.0094C69.7997 12.0094 69.7997 12.0294 69.7997 12.0394L69.8096 12.0294Z" fill="white"/>
<path d="M74.1899 10.1896H75.0499V10.9096H75.1199C75.3499 10.3796 75.8899 10.0596 76.4599 10.1096C77.2699 10.0496 77.9699 10.6496 78.0299 11.4596C78.0299 11.5696 78.0299 11.6796 78.0199 11.7796V14.6896H77.1299V11.9996C77.1299 11.2796 76.8199 10.9196 76.1599 10.9196C75.5899 10.8896 75.1099 11.3296 75.0799 11.8996C75.0799 11.9496 75.0799 12.0096 75.0799 12.0596V14.6896H74.1899V10.1896Z" fill="white"/>
</g>
<defs>
<clipPath id="clip0_103_435">
<rect width="119.66" height="40" fill="white"/>
</clipPath>
</defs>
</svg>
