<svg width="135" height="40" viewBox="0 0 135 40" fill="none" xmlns="http://www.w3.org/2000/svg">
<g clip-path="url(#clip0_103_411)">
<mask id="mask0_103_411" style="mask-type:luminance" maskUnits="userSpaceOnUse" x="0" y="0" width="135" height="40">
<path d="M135 0H0V40H135V0Z" fill="white"/>
</mask>
<g mask="url(#mask0_103_411)">
<mask id="mask1_103_411" style="mask-type:luminance" maskUnits="userSpaceOnUse" x="0" y="0" width="135" height="40">
<path d="M135 0H0V40H135V0Z" fill="white"/>
</mask>
<g mask="url(#mask1_103_411)">
<path d="M130.002 40H4.99777C2.24349 40 0 37.7466 0 35.0025V4.9975C0 2.25338 2.25351 0 4.99777 0H129.992C132.746 0 134.99 2.25338 134.99 4.9975V34.9925C134.99 37.7466 132.736 39.99 129.992 39.99" fill="black"/>
<path d="M130.002 0.801202C132.316 0.801202 134.199 2.68403 134.199 4.9975V34.9925C134.199 37.306 132.316 39.1888 130.002 39.1888H4.99777C2.68418 39.1888 0.801246 37.306 0.801246 34.9925V4.9975C0.801246 2.68403 2.68418 0.801202 4.99777 0.801202H129.992H130.002ZM130.002 0H4.99777C2.25351 0 0 2.25338 0 4.9975V34.9925C0 37.7466 2.25351 39.99 4.99777 39.99H129.992C132.746 39.99 134.99 37.7366 134.99 34.9925V4.9975C135 2.25338 132.747 0 130.002 0Z" fill="#A6A5A5"/>
<path d="M68.1361 21.7527C65.7824 21.7527 63.8695 23.5454 63.8695 26.0091C63.8695 28.4728 65.7824 30.2655 68.1361 30.2655C70.4898 30.2655 72.4027 28.4628 72.4027 26.0091C72.4027 23.5554 70.4898 21.7527 68.1361 21.7527ZM68.1361 28.583C66.8441 28.583 65.7323 27.5214 65.7323 26.0091C65.7323 24.4968 66.8441 23.4352 68.1361 23.4352C69.4281 23.4352 70.5398 24.4868 70.5398 26.0091C70.5398 27.5314 69.4281 28.583 68.1361 28.583ZM58.8216 21.7527C56.4679 21.7527 54.555 23.5454 54.555 26.0091C54.555 28.4728 56.4679 30.2655 58.8216 30.2655C61.1753 30.2655 63.0882 28.4628 63.0882 26.0091C63.0882 23.5554 61.1652 21.7527 58.8216 21.7527ZM58.8216 28.583C57.5296 28.583 56.4179 27.5214 56.4179 26.0091C56.4179 24.4968 57.5296 23.4352 58.8216 23.4352C60.1136 23.4352 61.2253 24.4868 61.2253 26.0091C61.2253 27.5314 60.1136 28.583 58.8216 28.583ZM47.7444 23.0547V24.8574H52.0611C51.9309 25.8689 51.5904 26.61 51.0796 27.1308C50.4486 27.7617 49.467 28.4528 47.7444 28.4528C45.0902 28.4528 43.007 26.3095 43.007 23.6556C43.007 21.0016 45.0802 18.8584 47.7444 18.8584C49.1766 18.8584 50.2282 19.4192 50.9994 20.1503L52.2714 18.8784C51.1897 17.8469 49.7575 17.0557 47.7444 17.0557C44.0987 17.0557 41.0439 20.0201 41.0439 23.6556C41.0439 27.291 44.1087 30.2655 47.7444 30.2655C49.7074 30.2655 51.1897 29.6245 52.3515 28.4127C53.5434 27.2209 53.914 25.5484 53.914 24.1964C53.914 23.7757 53.8839 23.3952 53.8138 23.0647H47.7444V23.0547ZM93.0549 24.4568C92.7043 23.5053 91.6226 21.7527 89.4092 21.7527C87.1957 21.7527 85.4029 23.4753 85.4029 26.0091C85.4029 28.3927 87.2058 30.2655 89.6195 30.2655C91.5726 30.2655 92.6943 29.0737 93.165 28.3827L91.7128 27.4112C91.232 28.1223 90.571 28.583 89.6195 28.583C88.668 28.583 87.997 28.1523 87.5563 27.291L93.2452 24.9375L93.0549 24.4568ZM87.2558 25.8789C87.2058 24.2364 88.5278 23.3952 89.4793 23.3952C90.2204 23.3952 90.8514 23.7657 91.0618 24.2965L87.2558 25.8789ZM82.6286 30.0051H84.5016V17.5063H82.6286V30.0051ZM79.5639 22.7041H79.5038C79.0831 22.2034 78.2819 21.7527 77.2603 21.7527C75.137 21.7527 73.1839 23.6255 73.1839 26.0191C73.1839 28.4127 75.137 30.2555 77.2603 30.2555C78.2719 30.2555 79.0831 29.8048 79.5038 29.284H79.5639V29.8949C79.5639 31.5274 78.6925 32.3887 77.2903 32.3887C76.1486 32.3887 75.4374 31.5674 75.147 30.8764L73.5245 31.5574C73.9952 32.6891 75.2371 34.0712 77.2903 34.0712C79.4837 34.0712 81.3366 32.7792 81.3366 29.6445V22.0031H79.5639V22.6941V22.7041ZM77.4205 28.583C76.1285 28.583 75.0569 27.5013 75.0569 26.0191C75.0569 24.5369 76.1385 23.4252 77.4205 23.4252C78.7025 23.4252 79.6941 24.5169 79.6941 26.0191C79.6941 27.5214 78.6925 28.583 77.4205 28.583ZM101.798 17.4963H97.3315V29.9951H99.1944V25.258H101.798C103.862 25.258 105.895 23.7557 105.895 21.3721C105.895 18.9886 103.862 17.4863 101.798 17.4863M101.849 23.5154H99.1944V19.2289H101.849C103.241 19.2289 104.032 20.3807 104.032 21.3721C104.032 22.3636 103.241 23.5154 101.849 23.5154ZM113.376 21.7227C112.024 21.7227 110.622 22.3136 110.051 23.6355L111.704 24.3266C112.054 23.6355 112.715 23.4052 113.407 23.4052C114.368 23.4052 115.35 23.9861 115.37 25.0176V25.1478C115.029 24.9575 114.308 24.6671 113.427 24.6671C111.644 24.6671 109.821 25.6486 109.821 27.4813C109.821 29.1538 111.283 30.2354 112.926 30.2354C114.178 30.2354 114.869 29.6746 115.309 29.0136H115.37V29.975H117.172V25.1778C117.172 22.9545 115.52 21.7227 113.376 21.7227ZM113.156 28.5729C112.545 28.5729 111.694 28.2625 111.694 27.5113C111.694 26.5499 112.755 26.1793 113.667 26.1793C114.488 26.1793 114.869 26.3596 115.37 26.6C115.229 27.7617 114.228 28.5729 113.146 28.5729M123.733 21.9931L121.589 27.4112H121.529L119.306 21.9931H117.293L120.618 29.5644L118.715 33.7808H120.658L125.786 21.9931H123.713H123.733ZM106.926 29.9951H108.789V17.4963H106.926V29.9951Z" fill="white"/>
<path d="M20.712 19.4192L10.0654 30.7161C10.3959 31.948 11.5077 32.8493 12.8397 32.8493C13.3706 32.8493 13.8713 32.7091 14.302 32.4487L14.3321 32.4287L26.3207 25.5183L20.712 19.4092V19.4192Z" fill="#E94434"/>
<path d="M31.4891 17.4967L26.311 14.4922L20.4819 19.68L26.331 25.5287L31.479 22.5643C32.3804 22.0736 32.9914 21.1221 32.9914 20.0305C32.9914 18.9389 32.3905 17.9974 31.4891 17.5067" fill="#F8BB15"/>
<path d="M10.0655 9.27344C10.0054 9.5138 9.96533 9.75416 9.96533 10.0145V29.9845C9.96533 30.2449 9.99538 30.4853 10.0655 30.7256L21.0726 19.7191L10.0555 9.28345L10.0655 9.27344Z" fill="#547DBE"/>
<path d="M20.7924 19.9999L26.3009 14.4917L14.3323 7.55124C13.9016 7.29085 13.3908 7.14062 12.85 7.14062C11.5179 7.14062 10.3962 8.04198 10.0757 9.27382L20.8024 19.9999H20.7924Z" fill="#32A851"/>
</g>
<path d="M43.1073 13.1303V7.87239H41.2344V6.80078H46.2622V7.87239H44.3893V13.1303H43.1073Z" fill="white"/>
<path d="M52.2918 13.1299H50.8996L50.3488 11.6878H47.8148L47.294 13.1299H45.9419L48.4057 6.80044H49.7578L52.2918 13.1299ZM49.9381 10.6262L49.0668 8.28266L48.2154 10.6262H49.9381ZM49.1569 6.04931C49.3071 6.00925 49.3873 5.94916 49.3873 5.84901C49.3873 5.77891 49.3472 5.72883 49.2671 5.67876C49.1469 5.60865 48.9566 5.57861 48.6962 5.57861C48.606 5.57861 48.4758 5.57861 48.2855 5.59864L48.2355 5.15797C48.3456 5.13794 48.556 5.12793 48.8564 5.12793C49.207 5.12793 49.4974 5.18802 49.7278 5.29819C49.9782 5.41837 50.0984 5.58862 50.1084 5.79894C50.1184 6.09939 49.858 6.27966 49.3272 6.34976V6.57009H48.8464V6.09939C49.0067 6.07936 49.1168 6.06934 49.1569 6.04931Z" fill="white"/>
<path d="M53.103 13.1303V6.80078H54.385V13.1303H53.103Z" fill="white"/>
<path d="M59.4828 13.1303V7.87239H57.6099V6.80078H62.6377V7.87239H60.7648V13.1303H59.4828Z" fill="white"/>
<path d="M63.5291 13.1303V6.80078H66.2132C66.8943 6.80078 67.3851 6.86087 67.6855 6.97104C67.996 7.0812 68.2364 7.29152 68.4167 7.58195C68.5969 7.87239 68.6971 8.20288 68.6971 8.58346C68.6971 9.05416 68.5569 9.45476 68.2764 9.75521C67.996 10.0657 67.5754 10.256 67.0245 10.3361C67.3049 10.4963 67.5253 10.6766 67.7056 10.8669C67.8858 11.0572 68.1262 11.3977 68.4367 11.8984L69.2079 13.1303H67.6755L66.7541 11.7582C66.4236 11.2675 66.2032 10.957 66.083 10.8268C65.9628 10.6966 65.8326 10.6065 65.7024 10.5664C65.5622 10.5164 65.3519 10.4963 65.0614 10.4963H64.801V13.1403H63.519L63.5291 13.1303ZM64.8111 9.47479H65.7525C66.3635 9.47479 66.7441 9.44475 66.9043 9.39467C67.0545 9.3446 67.1747 9.25446 67.2649 9.12427C67.355 8.99407 67.3951 8.84385 67.3951 8.65356C67.3951 8.44325 67.335 8.27299 67.2248 8.14279C67.1146 8.0126 66.9544 7.93248 66.7441 7.89242C66.6439 7.8824 66.3334 7.87239 65.8126 7.87239H64.8111V9.47479Z" fill="white"/>
<path d="M70.0491 13.1299V6.80042H74.7364V7.87203H71.3211V9.27413H74.496V10.3357H71.3211V12.0583H74.8566V13.1199H70.0391L70.0491 13.1299ZM70.8603 6.43988L71.7718 5.16797H72.8935L73.7849 6.43988H72.8134L72.3126 5.79892L71.8419 6.43988H70.8603Z" fill="white"/>
<path d="M76.0684 13.1303V6.80078H77.3103L79.9043 11.0271V6.80078H81.0962V13.1303H79.8142L77.2602 9.00409V13.1303H76.0684Z" fill="white"/>
</g>
</g>
<defs>
<clipPath id="clip0_103_411">
<rect width="135" height="40" fill="white"/>
</clipPath>
</defs>
</svg>
