<svg width="14" height="10" viewBox="0 0 14 10" fill="none" xmlns="http://www.w3.org/2000/svg">
<path d="M12.4444 0H1.55556C1.143 0 0.747335 0.162087 0.455612 0.450605C0.163888 0.739122 0 1.13044 0 1.53846V8.46154C0 8.86956 0.163888 9.26088 0.455612 9.54939C0.747335 9.83791 1.143 10 1.55556 10H12.4444C12.857 10 13.2527 9.83791 13.5444 9.54939C13.8361 9.26088 14 8.86956 14 8.46154V1.53846C14 1.13044 13.8361 0.739122 13.5444 0.450605C13.2527 0.162087 12.857 0 12.4444 0Z" fill="#DA251D"/>
<path d="M7.68172 4.245L7 2.17L6.31828 4.245H4.1125L5.89711 5.52692L5.21539 7.60192L7 6.31962L8.78461 7.60192L8.10289 5.52692L9.8875 4.245H7.68172Z" fill="#FFFF00"/>
</svg>
