<svg width="16" height="16" viewBox="0 0 16 16" fill="none" xmlns="http://www.w3.org/2000/svg">
<g clip-path="url(#clip0_97_219)">
<path fill-rule="evenodd" clip-rule="evenodd" d="M14.7895 13.3677C14.2757 14.1253 13.5982 14.7352 12.7762 15.1718C11.7648 15.7144 10.6249 16.0001 8.67911 16.0001H7.2663C6.07184 16.0001 5.17921 15.8909 4.43749 15.6823C4.37327 15.6662 4.31226 15.6469 4.25447 15.6277C4.19346 15.6084 4.13566 15.5892 4.07786 15.5699C4.03933 15.5571 4.0008 15.5442 3.96227 15.5282C3.89163 15.5025 3.8242 15.4768 3.75677 15.4479C3.75035 15.4479 3.74393 15.4447 3.73751 15.4415H3.7343C3.53843 15.358 3.3522 15.2681 3.16918 15.1718C2.16095 14.6293 1.36143 13.8396 0.825206 12.8283C0.285772 11.8171 0 10.6807 0 8.73202V7.32271C0 5.37407 0.285772 4.23443 0.825206 3.2264C1.36785 2.21516 2.16095 1.41902 3.16918 0.8829C3.28477 0.818695 3.40678 0.7577 3.5288 0.703125C3.51274 0.719176 3.49669 0.732017 3.48385 0.748069C0.818784 3.31308 0.616496 8.87969 2.87377 11.9038C2.87698 11.9102 2.88019 11.9134 2.8834 11.9166C3.23018 12.4303 2.89625 13.3291 2.36966 13.8556C2.34076 13.8813 2.3247 13.907 2.3247 13.9262C2.31507 13.9616 2.36002 13.9872 2.44351 13.9937C3.18844 14.0771 4.12282 13.8652 4.78427 13.5442C7.62914 15.1172 12.0634 15.0563 14.7895 13.3677Z" fill="#571D0D"/>
<path opacity="0.12" fill-rule="evenodd" clip-rule="evenodd" d="M14.7897 13.3672C14.276 14.1248 13.5985 14.7348 12.7765 15.1714C11.765 15.7139 10.6252 15.9996 8.67935 15.9996H7.26655C6.07208 15.9996 5.17945 15.8905 4.43773 15.6818C4.37351 15.6657 4.3125 15.6465 4.25471 15.6272C4.1937 15.608 4.1359 15.5887 4.07811 15.5694C4.03957 15.5566 4.00104 15.5438 3.96251 15.5277C3.89187 15.502 3.82444 15.4763 3.75701 15.4474C3.75059 15.4474 3.74417 15.4442 3.73775 15.441H3.73454L2.2832 13.9418L2.32494 13.9258C2.31531 13.9611 2.36027 13.9868 2.44375 13.9932C3.18868 14.0767 4.12306 13.8648 4.78451 13.5438C7.62938 15.1168 12.0637 15.0558 14.7897 13.3672Z" fill="#001A33"/>
<path opacity="0.2" fill-rule="evenodd" clip-rule="evenodd" d="M2.44346 13.9936C3.18839 14.077 4.12277 13.862 4.78422 13.5409C7.65799 15.13 12.1533 15.053 14.8729 13.313C14.9789 13.1557 15.0784 12.9888 15.1683 12.8186C15.711 11.8042 15.9999 10.6613 15.9999 8.70947V7.29374C15.9999 5.33868 15.7142 4.19583 15.1683 3.18459C14.6321 2.17014 13.8294 1.37721 12.8147 0.831461C11.8001 0.288925 10.657 0 8.70475 0H7.28231C5.61584 0 4.53698 0.208668 3.62829 0.609952C3.58012 0.654896 3.52875 0.699839 3.48379 0.744783C0.818734 3.313 0.616446 8.87961 2.87372 11.9037C2.87372 11.9069 2.88014 11.9133 2.88335 11.9165C3.23013 12.4302 2.8962 13.3291 2.36961 13.8523C2.28291 13.9326 2.31502 13.9807 2.44346 13.9936Z" fill="#571D0D"/>
<path d="M6.54706 5.45703H3.42284V6.12798H5.59021L3.45495 8.77645C3.38752 8.87276 3.33936 8.96586 3.33936 9.17132V9.34146H6.28698C6.43147 9.34146 6.55348 9.21947 6.55348 9.07501V8.71546H4.27694L6.28698 6.19539C6.31588 6.16008 6.37367 6.09267 6.39615 6.06056L6.40899 6.0413C6.52459 5.87116 6.55027 5.72348 6.55027 5.54692V5.45703H6.54706Z" fill="#571D0D"/>
<path d="M10.5224 9.33825H10.9655V5.45703H10.2944V9.11353C10.2944 9.23552 10.3908 9.33825 10.5192 9.33825H10.5224Z" fill="#571D0D"/>
<path d="M8.23291 6.32129C7.39165 6.32129 6.71094 7.00187 6.71094 7.84296C6.71094 8.68405 7.39165 9.36463 8.23291 9.36463C9.07417 9.36463 9.75489 8.68405 9.75489 7.84296C9.76131 7.00187 9.08059 6.32129 8.23291 6.32129ZM8.23291 8.73862C7.73843 8.73862 7.33707 8.33734 7.33707 7.84296C7.33707 7.34858 7.73843 6.94729 8.23291 6.94729C8.72739 6.94729 9.12876 7.34858 9.12876 7.84296C9.12876 8.33734 8.73382 8.73862 8.23291 8.73862Z" fill="#571D0D"/>
<path d="M12.9464 6.29883C12.0988 6.29883 11.4116 6.98583 11.4116 7.83334C11.4116 8.68085 12.0988 9.36785 12.9464 9.36785C13.7941 9.36785 14.4813 8.68085 14.4813 7.83334C14.4813 6.98583 13.7941 6.29883 12.9464 6.29883ZM12.9464 8.73864C12.4487 8.73864 12.0442 8.33735 12.0442 7.83655C12.0442 7.33575 12.4455 6.93446 12.9464 6.93446C13.4473 6.93446 13.8487 7.33575 13.8487 7.83655C13.8487 8.33735 13.4473 8.73864 12.9464 8.73864Z" fill="#571D0D"/>
<path d="M9.40469 9.33849H9.76431V6.4043H9.13818V9.07524C9.13818 9.2165 9.2602 9.33849 9.40469 9.33849Z" fill="#571D0D"/>
</g>
<defs>
<clipPath id="clip0_97_219">
<rect width="16" height="16" fill="white"/>
</clipPath>
</defs>
</svg>
