<?xml version="1.0" encoding="utf-8"?>
<!-- Generator: Adobe Illustrator 28.0.0, SVG Export Plug-In . SVG Version: 6.00 Build 0)  -->
<svg version="1.1" id="Layer_1" xmlns="http://www.w3.org/2000/svg" xmlns:xlink="http://www.w3.org/1999/xlink" x="0px" y="0px"
	 viewBox="0 0 9 6" style="enable-background:new 0 0 9 6;" xml:space="preserve">
<style type="text/css">
	.st0{clip-path:url(#SVGID_00000169551798283261299680000010348291722457583755_);}
	.st1{fill:#A2C760;}
</style>
<g>
	<defs>
		<rect id="SVGID_1_" x="0" width="9" height="6"/>
	</defs>
	<clipPath id="SVGID_00000137836139010715181700000017681306536599562645_">
		<use xlink:href="#SVGID_1_"  style="overflow:visible;"/>
	</clipPath>
	<g style="clip-path:url(#SVGID_00000137836139010715181700000017681306536599562645_);">
		<path class="st1" d="M8.9,2.9c-0.1,0.3-0.2,0.7-0.4,1C8.4,4.2,8.2,4.4,7.9,4.7C7.8,4.9,7.6,5,7.4,5.1c0,0-0.1,0-0.1,0.1
			c0,0,0,0,0,0C7.3,5.3,7.2,5.3,7.1,5.4c0,0-0.1,0.1-0.1,0.1C6.7,5.6,6.5,5.7,6.3,5.7C6.2,5.8,6.1,5.8,6,5.8c0,0,0,0,0,0
			c0,0-0.1,0-0.1,0C5.6,5.9,5.3,6,5,6C4.8,6,4.6,6,4.4,6C4.2,6,4,6,3.8,5.9c-0.3,0-0.6-0.1-0.9-0.2c0,0-0.1,0-0.1,0
			C2.1,5.6,1.4,5.3,0.9,4.8C0.5,4.4,0.1,3.8,0,3.2C0,3,0,2.7,0,2.5c0-0.1,0.1-0.3,0.1-0.4c0.6-1.2,2.4-1,3.4-1C4,1.1,4.3,1,4.7,0.8
			c0.2-0.1,0.4-0.3,0.6-0.4C6.1,0,6.9-0.1,7.5,0.1c0.5,0.2,1,0.5,1.2,1C8.9,1.4,9,1.7,9,1.9C9,2.3,9,2.6,8.9,2.9L8.9,2.9z"/>
	</g>
</g>
</svg>
